HIERARCHY
ROOT root
{
	OFFSET	0	13.1	24.9
	CHANNELS 6  Xposition Yposition Zposition Xrotation Yrotation Zrotation
	JOINT spine_1
	{
		OFFSET	0	9.99999	0
		CHANNELS 3  Xrotation Yrotation Zrotation
		JOINT spine_2
		{
			OFFSET	0	112	-10
			CHANNELS 3  Xrotation Yrotation Zrotation
			JOINT spine_3
			{
				OFFSET	0	206.5	19.3
				CHANNELS 3  Xrotation Yrotation Zrotation
				JOINT spine_4
				{
					OFFSET	0	110.4	14.6
					CHANNELS 3  Xrotation Yrotation Zrotation
					JOINT neck_1
					{
						OFFSET	0	71.8	-50.3
						CHANNELS 3  Xrotation Yrotation Zrotation
						JOINT neck_2
						{
							OFFSET	0	86.2	-25.8
							CHANNELS 3  Xrotation Yrotation Zrotation
							JOINT head_ee
							{
								OFFSET	0	179.8	-8.7
								CHANNELS 3  Xrotation Yrotation Zrotation
								End Site
								{
									OFFSET	1	0	0
								}
							}
						}
					}
					JOINT left_clavicle
					{
						OFFSET	-43.2	22.4	-70.8
						CHANNELS 3  Xrotation Yrotation Zrotation
						JOINT left_shoulder
						{
							OFFSET	-93.9	-5.79999	48.7
							CHANNELS 3  Xrotation Yrotation Zrotation
							JOINT left_elbow
							{
								OFFSET	-291.4	-30.8	15.2
								CHANNELS 3  Xrotation Yrotation Zrotation
								JOINT left_lowarm_twist
								{
									OFFSET	-110.7	-3.89999	13.6
									CHANNELS 3  Xrotation Yrotation Zrotation
									JOINT left_hand
									{
										OFFSET	-110.7	-3.89999	13.6
										CHANNELS 3  Xrotation Yrotation Zrotation
										JOINT left_ee
										{
											OFFSET	-80.8	-5.10001	12.1
											CHANNELS 3  Xrotation Yrotation Zrotation
											End Site
											{
												OFFSET	1	0	0
											}
										}
									}
								}
							}
						}
					}
					JOINT right_clavicle
					{
						OFFSET	43.2	22.4	-70.8
						CHANNELS 3  Xrotation Yrotation Zrotation
						JOINT right_shoulder
						{
							OFFSET	93.9	-5.79999	48.7
							CHANNELS 3  Xrotation Yrotation Zrotation
							JOINT right_elbow
							{
								OFFSET	291.4	-30.8	15.2
								CHANNELS 3  Xrotation Yrotation Zrotation
								JOINT right_lowarm_twist
								{
									OFFSET	110.7	-3.89999	13.6
									CHANNELS 3  Xrotation Yrotation Zrotation
									JOINT right_hand
									{
										OFFSET	110.7	-3.89999	13.6
										CHANNELS 3  Xrotation Yrotation Zrotation
										JOINT right_ee
										{
											OFFSET	80.8	-5.10001	12.1
											CHANNELS 3  Xrotation Yrotation Zrotation
											End Site
											{
												OFFSET	1	0	0
											}
										}
									}
								}
							}
						}
					}
				}
			}
		}
	}
	JOINT left_hip
	{
		OFFSET	-82.8	-127.5	0.300001
		CHANNELS 3  Xrotation Yrotation Zrotation
		JOINT left_knee
		{
			OFFSET	-28.2	-396.7	2.2
			CHANNELS 3  Xrotation Yrotation Zrotation
			JOINT left_ankle
			{
				OFFSET	-11.7	-411.3	35.4
				CHANNELS 3  Xrotation Yrotation Zrotation
				JOINT left_toes
				{
					OFFSET	0	-60	-88.6
					CHANNELS 3  Xrotation Yrotation Zrotation
					JOINT left_foot_ee
					{
						OFFSET	-22.5	-16.5	-42.2
						CHANNELS 3  Xrotation Yrotation Zrotation
						End Site
						{
							OFFSET	1	0	0
						}
					}
				}
			}
		}
	}
	JOINT right_hip
	{
		OFFSET	82.8	-127.5	0.300001
		CHANNELS 3  Xrotation Yrotation Zrotation
		JOINT right_knee
		{
			OFFSET	28.2	-396.7	2.2
			CHANNELS 3  Xrotation Yrotation Zrotation
			JOINT right_ankle
			{
				OFFSET	11.7	-411.3	35.4
				CHANNELS 3  Xrotation Yrotation Zrotation
				JOINT right_toes
				{
					OFFSET	0	-60	-88.6
					CHANNELS 3  Xrotation Yrotation Zrotation
					JOINT right_foot_ee
					{
						OFFSET	22.5	-16.5	-42.2
						CHANNELS 3  Xrotation Yrotation Zrotation
						End Site
						{
							OFFSET	1	0	0
						}
					}
				}
			}
		}
	}
}
MOTION
Frames: 14
Frame Time: 0.02
3177.02 653.055 -1669.29 134.387980913 77.6280347246 -134.811433505 -6.30641 0.434524 1.05265 -6.30587 0.366665 1.07816 -6.29728 0.00702952 1.13877 -6.29905 0.186778 1.12338 -2.45494 -3.56469 3.90439 -2.35005 -9.52423 3.60451 -0.0 0.0 -0.0 1.3138 4.79729 2.98221 -12.963 -5.19008 65.7705 0.393875 -11.0407 0.0380673 -11.2138 -0.527263 1.33098 -0.535988 22.5997 5.91595 -0.0 0.0 -0.0 11.2221 3.71986 -22.4096 25.1444 33.7336 -45.762 6.77416 73.3699 -5.04915 -28.4455 1.81431 -3.11355 -3.74585 -6.36665 22.3981 0.0 0.0 0.0 19.5773 17.684 0.929544 5.21088 -0.249383 -0.760287 -20.4252 -15.052 3.35526 3.30766 -0.0 -0.0 -0.0 0.0 -0.0 -30.608 21.2684 -11.1834 3.02818 0.136493 0.444545 -25.6984 -30.3406 -4.16034 -27.4787 0.0 0.0 0.0 0.0 0.0 
3095.55413172 638.945 -1661.03373674 125.961528634 77.2906959054 -125.758775216 -5.68433 0.487927 1.41017 -5.68331 0.397214 1.43835 -5.67066 -0.0615527 1.49091 -5.67372 0.174655 1.48193 -7.78395 -5.37817 -0.0444685 -7.79146 -9.99689 -1.19872 -0.0 0.0 -0.0 2.84688 5.09827 5.81817 -15.3139 -11.8232 60.9868 0.199244 -5.63696 0.00980916 -16.0835 -0.835475 1.87243 -0.787583 28.7663 6.96306 -0.0 0.0 -0.0 9.64021 -0.0961371 -18.91 19.7927 32.3165 -50.1888 7.12527 74.1434 -5.38625 -19.1447 1.05244 -2.19881 -3.72655 -9.66162 20.375 0.0 0.0 0.0 14.9205 16.8755 0.571929 1.79447 -0.0780435 -0.264289 -5.24916 -20.6051 0.889793 2.32813 -0.0 -0.0 -0.0 0.0 -0.0 -38.7302 23.7378 -11.0257 6.49677 0.321507 0.944251 -20.2158 -29.8055 -3.2579 -29.3927 0.0 0.0 0.0 0.0 0.0 
3055.09614013 647.413 -1652.68930103 111.541611464 80.0537951042 -110.935642776 -5.23824 0.295375 1.51482 -5.23699 0.198396 1.53054 -5.22914 -0.267404 1.52001 -5.23236 -0.0240204 1.54316 -6.19616 -3.08375 0.681158 -6.19006 -6.20481 0.0990941 -0.0 0.0 -0.0 3.36753 6.2432 6.83102 -14.0192 -13.8934 61.243 0.286151 -8.06817 0.0201808 -18.1215 -0.977975 2.091 -1.41268 28.0919 3.29062 -0.0 0.0 -0.0 9.9498 -1.99484 -19.4433 14.7693 32.3182 -50.8988 7.14858 74.1923 -5.40868 -16.1528 0.840194 -1.87994 -2.83481 -10.8271 13.7329 0.0 0.0 0.0 14.8652 17.3964 -0.293408 -2.02621 0.0781087 0.301128 0.33466 -22.0691 -0.0567767 4.2508 -0.0 -0.0 -0.0 0.0 -0.0 -39.6611 23.7155 -9.15118 6.24643 0.307141 0.908561 -11.7962 -27.7528 -1.86466 -32.2327 0.0 0.0 0.0 0.0 0.0 
3030.23892893 651.332 -1649.47639709 104.340625898 80.5062307353 -103.651217246 -5.20772 0.317818 1.61345 -5.20629 0.214519 1.6304 -5.1973 -0.280918 1.62028 -5.20096 -0.0215352 1.64431 -7.95421 -1.69578 1.03419 -7.95175 -3.89601 0.65788 -0.0 0.0 -0.0 3.92201 6.25061 7.83956 -12.67 -15.7528 60.9886 0.248015 -7.0044 0.0151789 -19.5583 -1.08308 2.242 -1.3806 26.1602 2.61152 -0.0 0.0 -0.0 9.58891 -3.74191 -18.6095 13.3339 32.0837 -53.2573 6.96983 73.8099 -5.23685 -13.558 0.669866 -1.59485 -2.11523 -12.8084 8.06948 0.0 0.0 0.0 12.7667 17.0513 -0.483309 -1.50382 0.0589921 0.223237 1.99681 -23.0713 -0.34065 4.6188 -0.0 -0.0 -0.0 0.0 -0.0 -37.9182 23.178 -7.95669 0.0548179 0.00226121 0.00810839 -9.65712 -24.7139 -1.4973 -32.7765 0.0 0.0 0.0 0.0 0.0 
3007.66977645 658.595 -1646.34051642 96.7553074951 80.0828327248 -95.9999482192 -5.27303 0.4327 1.54697 -5.27176 0.333399 1.57136 -5.25972 -0.151539 1.59916 -5.26327 0.102888 1.60303 -8.53209 -0.930779 1.82545 -8.5231 -3.01734 1.59127 -0.0 0.0 -0.0 4.19385 6.30529 8.33661 -12.4171 -17.2257 60.6054 0.319201 -8.98558 0.0250813 -19.9506 -1.11244 2.28279 -1.47671 23.4559 0.855826 -0.0 0.0 -0.0 10.5003 -4.54208 -20.3669 9.27586 31.8624 -51.6495 6.55057 72.8375 -4.83521 -11.8953 0.567598 -1.40828 -1.70172 -13.9866 4.89167 0.0 0.0 0.0 10.1589 17.2004 -1.53292 -0.619178 0.0249996 0.0917308 3.70422 -26.1902 -0.650979 4.2954 -0.0 -0.0 -0.0 0.0 -0.0 -33.368 22.6403 -7.41918 -16.1518 -0.32161 -2.4496 4.65467 -23.7384 0.698414 -29.8039 0.0 0.0 0.0 0.0 0.0 
2958.89312562 675.408 -1643.38207031 92.4619182835 78.1043864014 -91.0490148932 -5.31215 0.705769 1.59716 -5.31093 0.602722 1.63882 -5.29021 0.0844917 1.74407 -5.29428 0.358834 1.70886 -10.6658 2.17587 1.94809 -10.6586 2.80943 2.45311 -0.0 0.0 -0.0 4.95442 5.69463 9.71643 -11.1621 -21.4902 58.691 0.42435 -11.8715 0.0441204 -21.2718 -1.21335 2.41862 -1.61165 17.9169 -2.49062 -0.0 0.0 -0.0 10.9464 -5.49069 -21.171 -0.155672 31.4101 -49.81 5.76277 70.665 -4.08689 -7.6066 0.329279 -0.91427 -1.08325 -16.5049 -0.0841037 0.0 0.0 0.0 5.34685 18.725 -3.234 -1.85259 0.0718342 0.275221 7.49541 -25.3108 -1.28585 2.89193 -0.0 -0.0 -0.0 0.0 -0.0 -13.8767 21.2591 -5.20033 -72.2635 3.65909 -9.72643 36.1045 -20.4586 4.66247 -21.3446 0.0 0.0 0.0 0.0 0.0 
2958.79651338 675.408 -1644.208851 91.4314526506 78.1117622971 -89.9959496442 -5.31215 0.705769 1.59716 -5.31093 0.602722 1.63882 -5.29021 0.0844917 1.74407 -5.29428 0.358834 1.70886 -10.6658 2.17587 1.94809 -10.6586 2.80943 2.45311 -0.0 0.0 -0.0 4.95442 5.69463 9.71643 -11.1621 -21.4902 58.691 0.42435 -11.8715 0.0441204 -21.2718 -1.21335 2.41862 -1.61165 17.9169 -2.49062 -0.0 0.0 -0.0 10.9464 -5.49069 -21.171 -0.155672 31.4101 -49.81 5.76277 70.665 -4.08689 -7.6066 0.329279 -0.91427 -1.08325 -16.5049 -0.0841037 0.0 0.0 0.0 5.34685 18.725 -3.234 -1.85259 0.0718342 0.275221 7.49541 -25.3108 -1.28585 2.89193 -0.0 -0.0 -0.0 0.0 -0.0 -13.8767 21.2591 -5.20033 -72.2635 3.65909 -9.72643 36.1045 -20.4586 4.66247 -21.3446 0.0 0.0 0.0 0.0 0.0 
2958.67686115 675.408 -1645.27275904 90.1048017131 78.1155062708 -88.6402320728 -5.31215 0.705769 1.59716 -5.31093 0.602722 1.63882 -5.29021 0.0844917 1.74407 -5.29428 0.358834 1.70886 -10.6658 2.17587 1.94809 -10.6586 2.80943 2.45311 -0.0 0.0 -0.0 4.95442 5.69463 9.71643 -11.1621 -21.4902 58.691 0.42435 -11.8715 0.0441204 -21.2718 -1.21335 2.41862 -1.61165 17.9169 -2.49062 -0.0 0.0 -0.0 10.9464 -5.49069 -21.171 -0.155672 31.4101 -49.81 5.76277 70.665 -4.08689 -7.6066 0.329279 -0.91427 -1.08325 -16.5049 -0.0841037 0.0 0.0 0.0 5.34685 18.725 -3.234 -1.85259 0.0718342 0.275221 7.49541 -25.3108 -1.28585 2.89193 -0.0 -0.0 -0.0 0.0 -0.0 -13.8767 21.2591 -5.20033 -72.2635 3.65909 -9.72643 36.1045 -20.4586 4.66247 -21.3446 0.0 0.0 0.0 0.0 0.0 
2944.09053854 675.404 -1640.91867233 83.0837346419 78.3082238713 -81.7051277255 -5.1809 0.870521 1.51199 -5.17996 0.772558 1.5643 -5.15561 0.272977 1.72315 -5.15935 0.541654 1.65844 -10.4908 3.03546 3.30353 -10.4655 3.51624 3.98504 -0.0 0.0 -0.0 5.32997 4.73733 10.3996 -9.74083 -22.166 58.5704 0.515055 -14.3134 0.0646718 -21.9822 -1.26891 2.49071 -1.60085 17.0927 -2.80956 -0.0 0.0 -0.0 11.0172 -5.74896 -21.2861 -2.727 31.4433 -50.1662 5.32503 69.2117 -3.67568 -7.11428 0.304312 -0.85647 -0.842078 -17.208 -1.8604 0.0 0.0 0.0 3.86304 19.343 -3.2017 -0.455764 0.0184985 0.0674955 8.4883 -25.0334 -1.44589 2.98135 -0.0 -0.0 -0.0 0.0 -0.0 -13.2332 21.86 -4.35344 -73.1698 3.77665 -9.80246 35.1765 -21.0711 4.58136 -21.4379 0.0 0.0 0.0 0.0 0.0 
2944.09667486 675.404 -1640.86833832 83.143137047 78.3097084365 -81.7657885679 -5.1809 0.870521 1.51199 -5.17996 0.772558 1.5643 -5.15561 0.272977 1.72315 -5.15935 0.541654 1.65844 -10.4908 3.03546 3.30353 -10.4655 3.51624 3.98504 -0.0 0.0 -0.0 5.32997 4.73733 10.3996 -9.74083 -22.166 58.5704 0.515055 -14.3134 0.0646718 -21.9822 -1.26891 2.49071 -1.60085 17.0927 -2.80956 -0.0 0.0 -0.0 11.0172 -5.74896 -21.2861 -2.727 31.4433 -50.1662 5.32503 69.2117 -3.67568 -7.11428 0.304312 -0.85647 -0.842078 -17.208 -1.8604 0.0 0.0 0.0 3.86304 19.343 -3.2017 -0.455764 0.0184985 0.0674955 8.4883 -25.0334 -1.44589 2.98135 -0.0 -0.0 -0.0 0.0 -0.0 -13.2332 21.86 -4.35344 -73.1698 3.77665 -9.80246 35.1765 -21.0711 4.58136 -21.4379 0.0 0.0 0.0 0.0 0.0 
2917.33448962 685.985 -1632.44291513 71.055774127 78.9872043342 -69.2004673218 -4.81479 0.579361 1.34359 -4.81393 0.492699 1.37773 -4.79979 0.0701548 1.46148 -4.80265 0.300064 1.43207 -10.1031 3.55089 3.77794 -10.07 4.13787 4.56584 -0.0 0.0 -0.0 5.80729 2.62217 11.2789 -7.21982 -23.4358 58.2058 0.612009 -16.8659 0.0907343 -22.8982 -1.34186 2.58262 -1.6309 15.6858 -3.65176 -0.0 0.0 -0.0 10.7895 -4.65677 -20.9372 -7.21057 32.215 -50.1236 4.18493 64.2293 -2.6274 -5.71281 0.235972 -0.690801 -0.619325 -19.2142 -4.04813 0.0 0.0 0.0 2.19443 21.1446 -3.2781 1.4152 -0.0608584 -0.208633 8.42984 -24.0056 -1.41998 3.2536 -0.0 -0.0 -0.0 0.0 -0.0 -8.85887 21.4447 -3.43886 -72.1976 3.65059 -9.72083 35.8837 -22.4208 4.68553 -21.3533 0.0 0.0 0.0 0.0 0.0 
2906.2029534 688.032 -1631.81167275 63.0899408863 78.9730466884 -61.154694116 -4.48166 0.429252 1.37661 -4.48067 0.340794 1.40113 -4.47023 -0.0737474 1.44009 -4.47309 0.154589 1.43366 -9.21337 4.22077 3.58956 -9.18645 5.4482 4.51511 -0.0 0.0 -0.0 6.00864 0.976754 11.649 -6.14092 -23.9532 57.4512 0.674032 -18.464 0.109557 -23.5867 -1.39766 2.65095 -1.59045 14.3964 -4.00389 -0.0 0.0 -0.0 10.4101 -5.32287 -20.1182 -8.80489 34.8105 -51.2431 3.7249 61.5285 -2.21784 -4.06169 0.160697 -0.493577 -0.232998 -21.9186 -7.42078 0.0 0.0 0.0 1.38901 22.5493 -3.11535 3.33041 -0.151404 -0.488512 9.08848 -23.1986 -1.51374 3.29263 -0.0 -0.0 -0.0 0.0 -0.0 -4.32695 21.0434 -3.90491 -71.0131 3.49888 -9.6185 36.6 -23.9488 4.79902 -21.1538 0.0 0.0 0.0 0.0 0.0 
2892.34805192 686.686 -1627.36877173 58.80643019 79.0400848141 -56.6402877119 -4.34786 0.262033 1.19376 -4.34709 0.185545 1.20801 -4.34175 -0.16466 1.21104 -4.34379 0.0286527 1.22184 -8.2866 4.77341 3.6457 -8.25839 6.35874 4.65925 -0.0 0.0 -0.0 6.13865 0.25689 11.8941 -4.60087 -24.5515 56.68 0.772357 -20.9369 0.142711 -24.508 -1.47361 2.74134 -1.60928 12.9832 -4.78244 -0.0 0.0 -0.0 9.98152 -3.72978 -19.3928 -11.2499 36.965 -51.0906 3.1198 57.0826 -1.69712 -2.2883 0.0862265 -0.279462 0.0647448 -24.3583 -10.0672 0.0 0.0 0.0 0.263897 24.243 -2.95107 5.25691 -0.251893 -0.766899 8.54086 -21.9821 -1.40792 3.49562 -0.0 -0.0 -0.0 0.0 -0.0 -1.15898 19.0364 -4.21026 -69.2881 3.28185 -9.46397 37.63 -25.0568 4.93614 -21.0364 0.0 0.0 0.0 0.0 0.0 
2878.35478898 690.221 -1621.65183006 56.1468716932 79.3001236248 -53.5110771252 -4.13506 0.0819838 1.16731 -4.1343 0.0075438 1.17016 -4.13304 -0.320552 1.12543 -4.13478 -0.138801 1.16193 -7.03554 5.44484 3.60125 -7.00513 7.51812 4.69978 -0.0 0.0 -0.0 6.29476 -0.368631 12.1935 -3.68195 -25.1291 55.8795 0.848476 -22.7973 0.171065 -25.819 -1.58418 2.86783 -1.66528 11.3131 -5.92123 -0.0 0.0 -0.0 9.56297 -1.84292 -18.6686 -13.2446 38.7389 -51.0339 2.48306 50.8814 -1.18135 0.0475598 -0.00167326 0.00584349 0.341605 -27.0429 -12.5842 0.0 0.0 0.0 -1.38845 25.1506 -2.49383 7.19575 -0.362445 -1.04357 7.65962 -21.4582 -1.26038 3.79399 -0.0 -0.0 -0.0 0.0 -0.0 1.34371 16.4397 -4.49398 -67.4869 3.06031 -9.29576 38.5269 -26.2263 5.06407 -20.9028 0.0 0.0 0.0 0.0 0.0 
